<svg width="118" height="114" viewBox="0 0 118 114" fill="none" xmlns="http://www.w3.org/2000/svg">
<path d="M65.0111 61.3712C58.2303 61.5559 10.2496 45.227 10.2496 45.227C10.2496 45.227 11.1933 85.0672 13.4708 89.529C15.5992 93.712 61.7583 108.041 66.275 107.776C75.5212 107.277 107.213 88.7076 109.514 83.6617C111.211 79.7985 110.31 40.2398 110.31 40.2398C110.31 40.2398 71.8272 61.1856 65.0111 61.3712Z" fill="url(#paint0_linear_1392_32003)"/>
<path d="M65.0071 60.9925C58.2263 61.1772 10.2103 44.8492 10.2103 44.8492C10.2103 44.8492 10.9793 84.7649 13.4314 89.1512C17.482 96.4274 58.6837 107.816 66.2347 107.363" fill="#616161"/>
<path d="M64.7135 63.4431C64.68 76.4853 65.7455 96.1419 66.0035 106.914C66.0497 108.609 67.1789 108.543 67.1709 106.953C67.1429 100.734 66.4961 70.4984 65.9888 63.5498C65.759 60.3046 64.7139 60.8632 64.7135 63.4431Z" fill="#CFCFCF"/>
<path d="M65.0362 61.3726C58.2554 61.5573 10.2747 45.2283 10.2747 45.2283C10.2747 45.2283 10.951 84.3337 13.4959 89.5303C16.2975 95.0734 58.3157 107.889 66.3001 107.778C74.2836 107.631 107.604 89.1937 109.539 83.663C111.438 78.1333 110.336 40.2412 110.336 40.2412C110.336 40.2412 71.817 61.1879 65.0362 61.3726Z" stroke="#333333" stroke-width="1.76647" stroke-linecap="round" stroke-linejoin="round"/>
<path d="M80.0563 62.5712L80.1269 67.0934L83.3419 65.6802L83.3066 61.1934L80.0563 62.5712Z" fill="#59751C"/>
<path d="M100.936 53.8086L98.1802 54.9391V59.1787L100.936 57.9775V53.8086Z" fill="#59751C"/>
<path d="M100.865 66.2083L100.901 62.1101L98.1802 63.3466V59.1777L95.3539 60.4143V64.6538L86.5216 68.7167L86.4862 64.3358L83.3772 65.7137L83.4479 70.1652L80.2683 71.6137L80.3389 76.0652L77.0886 77.6196L77.1946 82.0711L73.8737 83.7316L74.227 96.9801L77.5126 95.1783L77.3359 86.4873L80.5509 84.8268L80.6922 93.4119L83.8012 91.6807L83.7305 87.4765L98.1802 79.7747V83.767L100.83 82.2831L100.865 74.334L103.48 72.9915L103.409 80.8346L105.953 79.4214L106.094 67.7274L103.515 68.9993L103.55 64.9717L100.865 66.2083ZM98.1449 67.5155V71.6137L95.3892 72.9915V68.8226L98.1449 67.5155ZM86.5569 73.0268L86.5922 77.337L83.5186 78.8562L83.4479 74.5107L86.5569 73.0268Z" fill="#59751C"/>
<path d="M73.5557 74.6522L73.6617 79.1743L77.0179 77.5845L76.9473 73.0977L73.5557 74.6522Z" fill="#59751C"/>
<path d="M106.165 59.709L103.55 60.8749L103.515 64.9377L106.094 63.7012L106.165 59.709Z" fill="#59751C"/>
<path d="M89.7365 92.4224L89.7011 88.3242L83.7305 91.6452L83.7658 95.814L89.7365 92.4224Z" fill="#59751C"/>
<path d="M92.5629 86.7709L92.5982 90.7985L98.1096 87.6542V83.6973L92.5629 86.7709Z" fill="#59751C"/>
<path opacity="0.6" d="M83.1652 101.36L79.385 59.1769L84.2958 56.5625L85.5676 99.9469L83.1652 101.36Z" fill="#333333"/>
<path d="M24.1299 57.0938L24.3419 61.4039L27.8748 62.5345L27.6981 58.2243L24.1299 57.0938Z" fill="#9CDE1D"/>
<path d="M49.7436 65.2539L45.9634 64.0527L46.1047 68.4689L49.8496 69.6701L49.7436 65.2539Z" fill="#9CDE1D"/>
<path d="M50.0616 78.4334L49.9556 74.0878L46.2107 72.8513L46.0694 68.4705L42.3598 67.2693L42.5011 71.6501L31.6197 68.0465L31.443 63.701L27.8748 62.5352L28.0514 66.8453L24.5185 65.6795L24.7304 69.919L21.2328 68.7531L21.4448 72.9573L17.9825 71.7914L18.6538 84.192L22.0807 85.3932L21.6568 77.1262L25.1191 78.3274L25.5077 86.6298L28.97 87.8663L28.8287 83.7328L46.7406 90.0214L46.8466 94.2256L50.5209 95.5328L50.3089 87.0537L54.0185 88.3256L54.1951 96.84L57.94 98.1825L57.6927 85.3226L53.9125 84.0507L53.8065 79.7052L50.0616 78.4334ZM46.352 77.1615L46.4933 81.4717L42.8191 80.2352L42.6778 75.925L46.352 77.1615ZM31.7963 72.3214L31.973 76.5609L28.44 75.3597L28.2634 71.1202L31.7963 72.3214Z" fill="#9CDE1D"/>
<path d="M17.5586 63.3828L17.7706 67.6223L21.2328 68.7882L21.0209 64.5487L17.5586 63.3828Z" fill="#9CDE1D"/>
<path d="M57.5161 76.5609L53.7358 75.2891L53.8065 79.6699L57.6221 80.9418L57.5161 76.5609Z" fill="#9CDE1D"/>
<path d="M36.2124 94.5423L36.0358 90.4088L29.0052 87.9004L29.1819 91.9986L36.2124 94.5423Z" fill="#9CDE1D"/>
<path d="M39.6041 91.6816L39.7454 95.8152L46.9526 98.4295L46.8466 94.2254L39.6041 91.6816Z" fill="#9CDE1D"/>
<g opacity="0.5">
<path d="M65.2485 69.9187C65.7125 70.0827 66.3501 70.1361 66.771 70.0186C66.7328 69.9136 66.5301 63.7696 66.3879 63.7381C65.0547 60.2049 14.4452 48.5774 11.4488 47.5634C10.7711 47.3344 11.2075 52.9773 11.6361 53.1423C18.1063 55.8288 23.5379 58.0134 29.9288 60.384C29.5696 67.957 30.4271 96.8435 30.9311 97.1832C36.1187 100.788 46.2779 102.667 49.1902 103.189C49.6486 95.3658 50.2975 76.3694 50.6937 67.5584C54.4652 68.4806 62.6695 69.9536 65.2485 69.9187Z" fill="#333333"/>
</g>
<path d="M65.4156 47.1385C73.2791 43.8849 109.69 22.112 110.729 23.9215C112.035 26.4659 111.913 38.839 111.185 40.6613C110.457 42.4836 70.8396 63.3188 66.319 63.4419C61.7985 63.5651 59.9629 49.3722 65.4156 47.1385Z" fill="url(#paint1_linear_1392_32003)"/>
<path d="M7.82824 29.1314C7.92718 27.5736 48.5933 6.32103 55.7645 6.1964C61.523 6.11024 109.704 22.0096 110.711 23.926C111.791 25.9818 67.8467 47.5357 65.2333 47.6069C65.092 47.6107 66.5606 63.8988 65.921 63.7749C58.3505 62.2139 16.9985 49.2033 7.8392 45.1057C7.19485 44.8052 7.78357 30.0868 7.82824 29.1314Z" fill="#616161"/>
<path d="M110.813 25.09C110.813 25.09 113.075 22.5191 107.772 25.0315C92.596 33.6088 69.2629 46.3313 65.9784 46.4208C62.694 46.5103 48.2857 41.7427 34.8816 37.5133C25.1241 34.8103 10.9354 30.3196 10.8426 29.5092C10.6504 27.6413 32.6476 12.5873 56.552 6.56422C48.9561 6.66508 12.2606 23.1797 7.9274 28.8818C6.24499 30.6947 4.53054 39.1175 8.66201 45.4726C8.73649 45.6119 7.04984 31.6977 9.65942 31.4853C12.7987 31.2584 26.6125 36.2542 35.0623 38.9574C44.4057 42.0251 63.4873 47.0895 64.6302 48.8254C65.627 50.3887 65.5979 57.1045 65.8693 63.1759C65.8876 63.8469 67.1208 63.7073 67.1044 63.107C66.939 57.0326 66.2894 50.0526 67.4803 48.3591C68.8448 46.5548 110.813 25.09 110.813 25.09Z" fill="#CFCFCF"/>
<path d="M8.33336 28.2664C11.6963 24.5699 48.8438 6.48792 55.763 6.19344C61.4107 5.93359 108.61 20.8348 110.709 23.9231C113.102 27.4274 112.435 37.9776 111.165 40.6628C109.696 43.8129 74.321 63.4017 66.2287 63.4454C58.1364 63.4891 9.13338 47.2587 7.6839 44.6475C6.23441 42.0363 4.97045 31.9629 8.33336 28.2664Z" stroke="#333333" stroke-width="1.76647" stroke-miterlimit="10.0002"/>
<path d="M28.9709 99.5014C28.0267 98.5729 27.4816 38.3294 27.8399 35.9163C28.163 33.5043 72.7265 12.605 76.4993 10.9825C78.1409 10.2663 96.4629 15.9875 94.9616 16.6645C92.168 17.9069 48.0707 40.3486 47.6635 42.2681C47.2563 44.1877 47.5711 102.458 46.7821 104.636C46.4549 105.599 31.983 102.388 28.9709 99.5014Z" fill="url(#paint2_linear_1392_32003)"/>
<path d="M28.9709 99.5014C28.0267 98.5729 27.4816 38.3294 27.8399 35.9163C28.163 33.5043 72.7265 12.605 76.4993 10.9825C78.1409 10.2663 96.4629 15.9875 94.9616 16.6645C92.168 17.9069 48.0707 40.3486 47.6635 42.2681C47.2563 44.1877 47.5711 102.458 46.7821 104.636C46.4549 105.599 31.983 102.388 28.9709 99.5014Z" stroke="#803C19" stroke-width="1.76647"/>
<path d="M29.484 35.7212C30.2247 35.6656 45.5914 40.5838 46.4849 40.9482C47.45 41.346 46.9176 42.5622 46.3487 42.4363C44.9627 42.156 29.9273 37.7236 28.9507 36.902C28.3359 36.3886 28.7424 35.7414 29.484 35.7212Z" fill="#FFBE80"/>
<path d="M28.8506 91.7988C28.8506 91.7988 29.8496 94.7404 32.0796 96.164C34.7049 97.8243 38.2615 98.6463 40.3911 98.977C42.5207 99.3078 45.0673 99.3798 45.8347 99.0055C46.289 98.8164 46.0008 103.807 46.0008 103.807C46.0008 103.807 40.5505 103.532 34.9873 101.704C31.8486 100.659 29.9156 99.7571 29.6662 98.3856C29.3814 97.015 28.8506 91.7988 28.8506 91.7988Z" fill="#B7610B"/>
<path d="M99.3444 93.2364C100.025 92.2636 99.3799 34.8502 98.3398 31.6977C97.823 29.5913 43.1463 12.6672 39.6917 11.701C38.0909 11.3205 21.9279 18.6878 23.4237 19.1065C26.3418 19.8399 82.7464 37.9185 83.2517 39.6012C83.9441 41.6675 84.9068 99.0723 85.5668 101.245C85.8419 102.263 97.1611 96.1232 99.3444 93.2364Z" fill="url(#paint3_linear_1392_32003)"/>
<path d="M99.3444 93.2364C100.025 92.2636 99.3799 34.8502 98.3398 31.6977C97.823 29.5913 43.1463 12.6672 39.6917 11.701C38.0909 11.3205 21.9279 18.6878 23.4237 19.1065C26.3418 19.8399 82.7464 37.9185 83.2517 39.6012C83.9441 41.6675 84.9068 99.0723 85.5668 101.245C85.8419 102.263 97.1611 96.1232 99.3444 93.2364Z" stroke="#803C19" stroke-width="1.76647"/>
<path d="M96.9071 31.8692C96.3115 32.0621 84.4874 37.8269 83.8298 38.3396C83.136 38.8179 83.7261 39.7207 84.2147 39.4954C85.2617 39.0074 96.9208 33.6713 97.6041 32.8045C97.9791 32.2994 97.4683 31.7125 96.9071 31.8692Z" fill="#FFBE80"/>
<path d="M98.9186 86.0742C98.9186 86.0742 98.2882 88.8834 96.9169 90.4405C94.9825 92.0836 92.4133 93.7793 90.8013 94.2826C89.1902 94.8213 86.9758 95.2704 86.3677 95.0042C86.0097 94.8372 86.5139 100.372 86.5139 100.372C86.5139 100.372 91.4378 98.1883 93.9716 96.4935C96.4702 94.7997 98.3818 93.6167 98.561 92.4102C98.7392 91.1684 98.9186 86.0742 98.9186 86.0742Z" fill="#B7610B"/>
<path d="M61.5277 28.5011C61.5277 28.5011 68.3792 31.3715 71.9602 34.836C78.1277 40.7609 82.1389 50.4428 82.1389 50.4428C82.1389 50.4428 84.4736 44.8779 85.703 40.6069C89.6349 40.6705 93.2277 41.6368 93.2277 41.6368C93.2277 41.6368 89.5087 33.5551 82.3747 29.1545C76.526 25.5394 71.444 24.636 69.5698 24.752C65.8768 24.8694 61.5277 28.5011 61.5277 28.5011Z" fill="url(#paint4_linear_1392_32003)"/>
<path d="M61.5277 28.5011C61.5277 28.5011 68.3792 31.3715 71.9602 34.836C78.1277 40.7609 82.1389 50.4428 82.1389 50.4428C82.1389 50.4428 84.4736 44.8779 85.703 40.6069C89.6349 40.6705 93.2277 41.6368 93.2277 41.6368C93.2277 41.6368 89.5087 33.5551 82.3747 29.1545C76.526 25.5394 71.444 24.636 69.5698 24.752C65.8768 24.8694 61.5277 28.5011 61.5277 28.5011Z" stroke="#803C19" stroke-width="1.76647" stroke-linecap="round" stroke-linejoin="round"/>
<path d="M84.7784 31.9611C84.3004 31.5991 82.8016 31.592 80.5196 33.4049C77.2348 35.9624 75.9811 37.99 76.2442 38.346C77.1724 39.6444 77.4307 39.9654 78.4373 41.574C78.715 42.035 79.4412 39.5453 83.5382 36.412C86.0555 34.4953 87.5387 34.6473 87.1561 34.2008C86.2762 33.2523 85.2612 32.3581 84.7784 31.9611Z" fill="#FFBE80"/>
<path d="M65.3937 25.4663C65.3937 25.4663 60.0292 30.8983 57.4631 38.0774C55.3032 44.163 56.8326 54.6839 56.8326 54.6839C56.8326 54.6839 51.7729 49.6233 49.6289 47.448C46.9462 48.7758 42.9242 51.2602 42.9242 51.2602C42.9242 51.2602 42.8826 43.197 45.3017 37.9564C47.8034 32.4749 51.9689 28.4548 55.8632 26.0406C57.3429 25.1394 65.3937 25.4663 65.3937 25.4663Z" fill="url(#paint5_linear_1392_32003)"/>
<path d="M65.3937 25.4663C65.3937 25.4663 60.0292 30.8983 57.4631 38.0774C55.3032 44.163 56.8326 54.6839 56.8326 54.6839C56.8326 54.6839 51.7729 49.6233 49.6289 47.448C46.9462 48.7758 42.9242 51.2602 42.9242 51.2602C42.9242 51.2602 42.8826 43.197 45.3017 37.9564C47.8034 32.4749 51.9688 28.4548 55.8632 26.0406C57.3429 25.1394 65.3937 25.4663 65.3937 25.4663Z" stroke="#803C19" stroke-width="1.76647" stroke-linecap="round" stroke-linejoin="round"/>
<path d="M46.6248 37.3119C46.9106 36.8712 48.5306 36.2253 51.3756 36.9007C54.7277 37.6982 56.2439 39.0159 56.1631 39.4025C55.7967 40.9239 55.6729 41.9795 55.5924 43.7543C55.5817 44.2686 54.9393 42.2458 50.3067 41.1645C46.336 40.2376 45.0596 41.6334 45.1386 41.1011C45.2354 39.943 46.2203 37.8568 46.6248 37.3119Z" fill="#FFBE80"/>
<path d="M89.4242 23.4871C91.7019 19.0971 84.6459 7.16768 79.9725 8.73455C75.6915 10.1709 69.1848 15.3979 66.907 18.5156C65.2542 20.7671 64.755 23.4746 67.1232 24.7419C69.1431 25.8228 87.0788 27.7692 89.4242 23.4871Z" fill="#E08021"/>
<path d="M89.4242 23.4871C91.7019 19.0971 84.6459 7.16768 79.9725 8.73455C75.6915 10.1709 69.1848 15.3979 66.907 18.5156C65.2542 20.7671 64.755 23.4746 67.1232 24.7419C69.1431 25.8228 87.0788 27.7692 89.4242 23.4871Z" stroke="#803C19" stroke-width="1.76647" stroke-miterlimit="10.0002"/>
<path d="M78.8014 10.2116C78.8014 10.2116 80.4524 10.5754 82.3223 13.2426C84.1589 15.8382 84.6544 18.3613 84.6544 18.3613L87.9555 19.1243C87.9555 19.1243 87.6836 16.1833 85.0269 12.5754C83.5622 10.591 82.0788 9.2775 80.7672 9.41784C79.9864 9.53756 78.8014 10.2116 78.8014 10.2116Z" fill="#FFBE80"/>
<path d="M68.4992 24.7216C68.9907 23.569 83.1708 18.2013 85.895 18.1001C87.805 18.047 88.7793 22.4212 87.3815 24.397C86.0563 26.3041 68.0058 25.945 68.4992 24.7216Z" fill="url(#paint6_linear_1392_32003)"/>
<path d="M68.4992 24.7216C68.9907 23.569 83.1708 18.2013 85.895 18.1001C87.805 18.047 88.7793 22.4212 87.3815 24.397C86.0563 26.3041 68.0058 25.945 68.4992 24.7216Z" stroke="#803C19" stroke-width="1.76647"/>
<path d="M71.2611 20.7695C71.9924 30.7514 51.7094 32.1874 51.2292 22.34C50.703 12.1051 70.5307 10.8229 71.2611 20.7695Z" fill="#E08021"/>
<path d="M71.2611 20.7695C71.9924 30.7514 51.7094 32.1874 51.2292 22.34C50.703 12.1051 70.5307 10.8229 71.2611 20.7695Z" stroke="#803C19" stroke-width="1.76647" stroke-miterlimit="10.0002"/>
<path d="M53.7296 17.7252C58.1728 13.4691 69.6135 13.0868 70.4627 20.9097C68.2225 16.5176 58.977 15.7445 53.7296 17.7252Z" fill="#FFBE80"/>
<path d="M52.1554 20.9562C55.9553 25.5179 68.3723 24.6495 70.3251 19.7898C72.6267 30.3298 49.7942 31.5878 52.1554 20.9562Z" fill="#B7610B"/>
<path d="M53.6995 17.204C53.6995 17.204 68.6683 14.0043 65.2675 27.9864" stroke="#803C19" stroke-width="1.76647" stroke-linecap="round" stroke-linejoin="round"/>
<path d="M61.6859 17.7622C57.8546 18.538 52.3752 24.9782 57.5714 28.901" stroke="#803C19" stroke-width="1.76647" stroke-linecap="round" stroke-linejoin="round"/>
<path d="M38.0099 36.1862C33.0836 36.353 27.8677 24.6694 30.8171 19.6167C34.0134 14.2495 44.7917 18.6439 49.4818 20.356C53.0914 21.6646 55.8832 23.5699 55.2333 25.8545C54.7893 27.1891 43.2827 35.9421 38.0099 36.1862Z" fill="#E08021"/>
<path d="M38.0099 36.1862C33.0836 36.353 27.8677 24.6694 30.8171 19.6167C34.0134 14.2495 44.7917 18.6439 49.4818 20.356C53.0914 21.6646 55.8832 23.5699 55.2333 25.8545C54.7893 27.1891 43.2827 35.9421 38.0099 36.1862Z" stroke="#803C19" stroke-width="1.76647" stroke-miterlimit="10.0002"/>
<path d="M33.8667 18.3085C33.8667 18.3085 34.1597 20.4438 35.4771 22.8116C37.0066 25.7586 38.6755 26.9097 38.6755 26.9097L36.9097 30.8589C36.9097 30.8589 34.9851 29.0626 33.42 25.2302C32.0966 22.2226 31.8738 20.0788 32.1218 19.4796C32.5816 18.5701 33.8667 18.3085 33.8667 18.3085Z" fill="#FFBE80"/>
<path d="M53.9892 26.2491C53.8805 25.0523 39.2069 25.5399 37.8792 27.5148C36.4197 29.5767 37.2123 34.6766 38.6449 34.753C42.759 34.9332 54.1342 27.1568 53.9892 26.2491Z" fill="url(#paint7_linear_1392_32003)"/>
<path d="M53.9892 26.2491C53.8805 25.0523 39.2069 25.5399 37.8792 27.5148C36.4197 29.5767 37.2123 34.6766 38.6449 34.753C42.759 34.9332 54.1342 27.1568 53.9892 26.2491Z" stroke="#803C19" stroke-width="1.76647"/>
<defs>
<linearGradient id="paint0_linear_1392_32003" x1="10.965" y1="77.614" x2="108.655" y2="70.3933" gradientUnits="userSpaceOnUse">
<stop stop-color="#4D4D4D"/>
<stop offset="0.5" stop-color="#5C5C5C"/>
<stop offset="1"/>
</linearGradient>
<linearGradient id="paint1_linear_1392_32003" x1="10.0447" y1="47.2809" x2="107.735" y2="40.0602" gradientUnits="userSpaceOnUse">
<stop stop-color="#4D4D4D"/>
<stop offset="0.5" stop-color="#5C5C5C"/>
<stop offset="1"/>
</linearGradient>
<linearGradient id="paint2_linear_1392_32003" x1="61.1453" y1="48.2361" x2="61.7769" y2="89.9795" gradientUnits="userSpaceOnUse">
<stop stop-color="#E08021"/>
<stop offset="0.5" stop-color="#803C19"/>
<stop offset="1" stop-color="#DB740D"/>
</linearGradient>
<linearGradient id="paint3_linear_1392_32003" x1="61.3577" y1="36.4046" x2="65.2569" y2="73.5135" gradientUnits="userSpaceOnUse">
<stop stop-color="#E08021"/>
<stop offset="0.5" stop-color="#803C19"/>
<stop offset="1" stop-color="#DB740D"/>
</linearGradient>
<linearGradient id="paint4_linear_1392_32003" x1="81.5601" y1="41.6541" x2="73.0542" y2="31.4161" gradientUnits="userSpaceOnUse">
<stop stop-color="#B7610B"/>
<stop offset="0.5" stop-color="#E08124"/>
<stop offset="1" stop-color="#E08021"/>
</linearGradient>
<linearGradient id="paint5_linear_1392_32003" x1="52.0668" y1="44.4004" x2="58.0837" y2="31.3884" gradientUnits="userSpaceOnUse">
<stop stop-color="#B7610B"/>
<stop offset="0.4" stop-color="#E08124"/>
<stop offset="0.8" stop-color="#E08021"/>
</linearGradient>
<linearGradient id="paint6_linear_1392_32003" x1="78.0246" y1="20.7962" x2="78.577" y2="28.5216" gradientUnits="userSpaceOnUse">
<stop stop-color="#DC7108"/>
<stop offset="0.5" stop-color="#803C19"/>
<stop offset="1" stop-color="#803C19"/>
</linearGradient>
<linearGradient id="paint7_linear_1392_32003" x1="44.9486" y1="25.1568" x2="47.3831" y2="33.6126" gradientUnits="userSpaceOnUse">
<stop stop-color="#DC7108"/>
<stop offset="0.5" stop-color="#803C19"/>
<stop offset="1" stop-color="#803C19"/>
</linearGradient>
</defs>
</svg>
