<?xml version="1.0" encoding="utf-8"?>
<!-- Generator: Adobe Illustrator 27.3.1, SVG Export Plug-In . SVG Version: 6.00 Build 0)  -->
<svg version="1.1" id="Layer_1" xmlns="http://www.w3.org/2000/svg" xmlns:xlink="http://www.w3.org/1999/xlink" x="0px" y="0px"
	 viewBox="0 0 334 322" style="enable-background:new 0 0 334 322;" xml:space="preserve">
<style type="text/css">
	.st0{fill:url(#SVGID_1_);}
	.st1{fill:#B5B5B5;}
	.st2{fill:#F0F0F0;}
	.st3{fill-opacity:0;stroke:#5A5A5A;stroke-width:5;stroke-linecap:round;stroke-linejoin:round;stroke-miterlimit:4;}
	.st4{fill:#BEBEBE;}
	.st5{opacity:0.6;fill:#5A5A5A;}
	.st6{fill:#EFEFEF;}
	.st7{opacity:0.5;}
	.st8{fill:#696969;}
	.st9{fill:url(#SVGID_00000058553969209195646130000017390016195274566838_);}
	.st10{fill-opacity:0;stroke:#5A5A5A;stroke-width:5;stroke-miterlimit:10.0001;}
	.st11{fill:url(#SVGID_00000081623408874680031440000009427122895331877554_);}
	.st12{fill-opacity:0;stroke:#A0A0A0;stroke-width:5;stroke-miterlimit:4;}
	.st13{fill:#F3F3F3;}
	.st14{fill:#C4C4C4;}
	.st15{fill:url(#SVGID_00000062191961310583305000000010044927943109855150_);}
	.st16{fill:url(#SVGID_00000043432245247060562150000015985130680777765560_);}
	.st17{fill-opacity:0;stroke:#959595;stroke-width:5;stroke-linecap:round;stroke-linejoin:round;stroke-miterlimit:4;}
	.st18{fill:url(#SVGID_00000171688782989567631960000016277129619679692218_);}
	.st19{fill:#DDDDDD;}
	.st20{fill-opacity:0;stroke:#959595;stroke-width:5;stroke-miterlimit:10.0001;}
	.st21{fill:url(#SVGID_00000012433138535141748810000016221385094929128372_);}
	.st22{fill-opacity:0;stroke:#828282;stroke-width:5;stroke-miterlimit:4;}
	.st23{fill-opacity:0;stroke:#A1A1A1;stroke-width:5;stroke-miterlimit:10.0001;}
	.st24{fill:#C6C6C6;}
	.st25{fill-opacity:0;stroke:#A1A1A1;stroke-width:5;stroke-linecap:round;stroke-linejoin:round;stroke-miterlimit:4;}
	.st26{fill:url(#SVGID_00000062877068771609357500000016981959470225370500_);}
	.st27{fill:#A0A0A0;}
	.st28{fill:#CCCCCC;}
</style>
<g transform="matrix(0.9996379017829895,-0.027226122096180916,0.02722565270960331,0.9996206760406494,-6.540802001953125,14.37286376953125)">
	<g transform="matrix(1,0,0,1,258.44500732421875,363.66900634765625)">
		
			<linearGradient id="SVGID_1_" gradientUnits="userSpaceOnUse" x1="-758.7592" y1="166.959" x2="-481.7942" y2="179.861" gradientTransform="matrix(0.9996 2.722646e-02 2.722553e-02 -0.9996 527.5095 32.6933)">
			<stop  offset="0" style="stop-color:#6F6F6F"/>
			<stop  offset="0.5" style="stop-color:#7B7B7B"/>
			<stop  offset="1" style="stop-color:#878787"/>
		</linearGradient>
		<path class="st0" d="M-72.3-199.2c-19.2,0-153.7-49.9-153.7-49.9s-0.4,112.8,5.7,125.6c5.7,12,135.2,56.1,148,55.7
			c26.2-0.7,117.3-50.8,124.2-64.9c5.1-10.8,5.6-122.8,5.6-122.8S-53-199.2-72.3-199.2z"/>
	</g>
	<g transform="matrix(1,0,0,1,186.76300048828125,362.59100341796875)">
		<path class="st1" d="M-0.6-199.2c-19.2,0-153.8-49.9-153.8-49.9s-0.9,113,5.7,125.6c10.9,20.9,126.6,56.3,148,55.6"/>
	</g>
	<g transform="matrix(1,0,0,1,259.14300537109375,408.21099853515625)">
		<path class="st2" d="M-74-237.9c-1.1,36.9,0.4,92.6,0.3,123.1c0,4.8,3.2,4.7,3.3,0.2c0.4-17.6,0.9-103.2,0-122.9
			C-70.8-246.7-73.8-245.2-74-237.9z"/>
	</g>
	<g transform="matrix(1,0,0,1,258.4159851074219,363.6759948730469)">
		<path class="st3" d="M-72.2-199.2c-19.2,0-153.7-49.9-153.7-49.9s-1.1,110.7,5.7,125.6c7.5,15.9,125.4,55.4,148,55.7
			c22.6,0.2,118.3-49.4,124.2-64.9c5.8-15.5,5.6-122.8,5.6-122.8S-53-199.2-72.2-199.2z"/>
	</g>
</g>
<g>
	<polygon class="st4" points="226.6,177.1 226.8,189.9 235.9,185.9 235.8,173.2 	"/>
	<polygon class="st4" points="285.7,152.3 277.9,155.5 277.9,167.5 285.7,164.1 	"/>
	<path class="st4" d="M285.5,187.4l0.1-11.6l-7.7,3.5l0-11.8l-8,3.5l0,12l-25,11.5l-0.1-12.4l-8.8,3.9l0.2,12.6l-9,4.1l0.2,12.6
		l-9.2,4.4l0.3,12.6l-9.4,4.7l1,37.5l9.3-5.1l-0.5-24.6l9.1-4.7l0.4,24.3l8.8-4.9l-0.2-11.9l40.9-21.8l0,11.3l7.5-4.2l0.1-22.5
		l7.4-3.8l-0.2,22.2l7.2-4l0.4-33.1l-7.3,3.6l0.1-11.4L285.5,187.4z M277.8,191.1l0,11.6l-7.8,3.9l0-11.8L277.8,191.1z M245,206.7
		l0.1,12.2l-8.7,4.3l-0.2-12.3L245,206.7z"/>
	<polygon class="st4" points="208.2,211.3 208.5,224.1 218,219.6 217.8,206.9 	"/>
	<polygon class="st4" points="300.5,169 293.1,172.3 293,183.8 300.3,180.3 	"/>
	<polygon class="st4" points="254,261.6 253.9,250 237,259.4 237.1,271.2 	"/>
	<polygon class="st4" points="262,245.6 262.1,257 277.7,248.1 277.7,236.9 	"/>
</g>
<polygon class="st5" points="235.4,286.9 224.7,167.5 238.6,160.1 242.2,282.9 "/>
<g>
	<polygon class="st6" points="68.3,161.6 68.9,173.8 78.9,177 78.4,164.8 	"/>
	<polygon class="st6" points="140.8,184.7 130.1,181.3 130.5,193.8 141.1,197.2 	"/>
	<path class="st6" d="M141.7,222l-0.3-12.3l-10.6-3.5l-0.4-12.4l-10.5-3.4l0.4,12.4l-30.8-10.2L89,180.3L78.9,177l0.5,12.2l-10-3.3
		l0.6,12l-9.9-3.3l0.6,11.9l-9.8-3.3l1.9,35.1l9.7,3.4l-1.2-23.4l9.8,3.4l1.1,23.5l9.8,3.5L81.6,237l50.7,17.8l0.3,11.9l10.4,3.7
		l-0.6-24l10.5,3.6l0.5,24.1l10.6,3.8l-0.7-36.4l-10.7-3.6l-0.3-12.3L141.7,222z M131.2,218.4l0.4,12.2l-10.4-3.5l-0.4-12.2
		L131.2,218.4z M90,204.7l0.5,12l-10-3.4l-0.5-12L90,204.7z"/>
	<polygon class="st6" points="49.7,179.4 50.3,191.4 60.1,194.7 59.5,182.7 	"/>
	<polygon class="st6" points="162.8,216.7 152.1,213.1 152.3,225.5 163.1,229.1 	"/>
	<polygon class="st6" points="102.5,267.6 102,255.9 82.1,248.8 82.6,260.4 	"/>
	<polygon class="st6" points="112.1,259.5 112.5,271.2 132.9,278.6 132.6,266.7 	"/>
</g>
<g transform="matrix(0.9996379017829895,-0.027226122096180916,0.02722565270960331,0.9996206760406494,-6.540802001953125,14.37286376953125)">
	<g transform="matrix(1,0,0,1,188.6580047607422,376.07000732421875)" class="st7">
		<path class="st8" d="M-2.5-187.4c1.3,0.5,3.1,0.7,4.3,0.4c-0.1-0.3-0.2-17.7-0.6-17.8c-3.5-10.1-145.8-46.9-154.2-50
			c-1.9-0.7-1.1,15.3,0.1,15.8c18.1,8.1,33.3,14.7,51.2,21.9c-1.6,21.4-1.4,103.2,0,104.2c14.4,10.6,43,16.7,51.2,18.4
			c1.9-22.1,5.2-75.8,7-100.7C-32.9-192.3-9.8-187.5-2.5-187.4z"/>
	</g>
</g>
<g transform="matrix(0.9996379017829895,-0.027226122096180916,0.02722565270960331,0.9996206760406494,-6.967803955078125,8.5009765625)">
	<g transform="matrix(1,0,0,1,257.9530029296875,274.5050048828125)">
		
			<linearGradient id="SVGID_00000131358127760904886770000015993774575576689560_" gradientUnits="userSpaceOnUse" x1="-757.0976" y1="249.4191" x2="-480.1326" y2="262.3211" gradientTransform="matrix(0.9996 2.722646e-02 2.722553e-02 -0.9996 524.163 127.682)">
			<stop  offset="0" style="stop-color:#6F6F6F"/>
			<stop  offset="0.5" style="stop-color:#7B7B7B"/>
			<stop  offset="1" style="stop-color:#878787"/>
		</linearGradient>
		<path style="fill:url(#SVGID_00000131358127760904886770000015993774575576689560_);" d="M-69.3-144.4
			c22.5-8.6,127.2-67.4,130-62.2c3.5,7.3,2.2,42.3,0,47.4c-2.2,5.1-115.9,61-128.7,61C-80.8-98.2-84.9-138.5-69.3-144.4z"/>
	</g>
	<g transform="matrix(1,0,0,1,258.10101318359375,251.6179962158203)">
		<path class="st1" d="M-231-176.9c0.4-4.4,117.1-61.4,137.4-61.2c16.3,0.2,151.4,48.9,154.1,54.4c2.9,5.9-123.1,63.5-130.5,63.5
			c-0.4,0,2.5,46.2,0.7,45.8c-21.3-5-137.3-45-162.9-57.3C-234-132.6-231.2-174.2-231-176.9z"/>
	</g>
	<g transform="matrix(1,0,0,1,256.20098876953125,275.4169921875)">
		<path class="st2" d="M62.6-204.2c0,0,6.6-7.1-8.6-0.4c-43.6,23.1-110.6,57.3-119.9,57.3s-49.7-14.6-87.3-27.6
			c-27.4-8.4-67.2-22.2-67.4-24.5c-0.4-5.3,63-46.2,131.1-61.4c-21.5-0.3-126.6,43.6-139.3,59.4c-4.9,5-10.4,28.7,0.8,47
			c0.2,0.4-3.5-39.1,3.9-39.5c8.9-0.4,47.6,14.8,71.3,23.1c26.2,9.4,79.8,25.2,82.9,30.2c2.7,4.5,2.1,23.5,2.4,40.7
			c0,1.9,3.5,1.6,3.5-0.1c0-17.2-1.3-37,2.2-41.7C-57.8-146.7,62.6-204.2,62.6-204.2z"/>
	</g>
	<g transform="matrix(1,0,0,1,257.3970031738281,274.5069885253906)">
		<path class="st10" d="M-228.8-202.2c9.8-10.2,116.3-58.5,135.9-58.8c16-0.3,148.4,45.5,154.1,54.4c6.5,10.1,3.8,39.9,0,47.4
			c-4.4,8.8-106,61.5-128.9,61c-22.9-0.5-160.3-50.2-164.2-57.7C-235.8-163.4-238.6-192-228.8-202.2z"/>
	</g>
</g>
<g transform="matrix(0.9996379017829895,-0.027226122096180916,0.02722565270960331,0.9996206760406494,-6.540802001953125,14.37286376953125)">
	<g transform="matrix(1,0,0,1,261.2330017089844,313.28399658203125)">
		
			<linearGradient id="SVGID_00000140717938238297578130000013328982452298650544_" gradientUnits="userSpaceOnUse" x1="-619.7996" y1="252.5973" x2="-621.2296" y2="134.4363" gradientTransform="matrix(0.9996 2.722646e-02 2.722553e-02 -0.9996 528.9247 83.1352)">
			<stop  offset="0" style="stop-color:#DDDDDD"/>
			<stop  offset="0.5" style="stop-color:#CACACA"/>
			<stop  offset="1" style="stop-color:#B6B6B6"/>
		</linearGradient>
		<path style="fill:url(#SVGID_00000140717938238297578130000013328982452298650544_);" d="M-180-43.7c-2.6-2.7,0.5-173.2,1.7-180
			c1.1-6.8,128.8-62.5,139.6-66.8c4.7-1.9,56.1,15.7,51.8,17.5c-8,3.3-134.5,63.4-135.8,68.8c-1.3,5.4-4.9,170.3-7.3,176.4
			C-131-25.1-171.7-35.3-180-43.7z"/>
		<path class="st12" d="M-180-43.7c-2.6-2.7,0.5-173.2,1.7-180c1.1-6.8,128.8-62.5,139.6-66.8c4.7-1.9,56.1,15.7,51.8,17.5
			c-8,3.3-134.5,63.4-135.8,68.8c-1.3,5.4-4.9,170.3-7.3,176.4C-131-25.1-171.7-35.3-180-43.7z"/>
	</g>
	<g transform="matrix(1,0,0,1,183.60000610351562,280.7550048828125)">
		<path class="st13" d="M-96-191.6c2.1-0.1,45.2,15,47.7,16.1c2.7,1.2,1.1,4.6-0.5,4.2c-3.9-0.9-46.1-14.6-48.8-17
			C-99.3-189.8-98.1-191.6-96-191.6z"/>
	</g>
	<g transform="matrix(1,0,0,1,184.38600158691406,438.6830139160156)">
		<path class="st14" d="M-102.9-190.9c0,0,2.6,8.4,8.8,12.6c7.3,4.9,17.3,7.5,23.3,8.6c6,1.1,13.2,1.5,15.4,0.5
			c1.3-0.5,0.1,13.6,0.1,13.6s-15.4-1.2-31-6.8c-8.8-3.2-14.2-5.9-14.8-9.8C-101.8-176.1-102.9-190.9-102.9-190.9z"/>
	</g>
</g>
<g transform="matrix(-0.9996379017829895,0.027226122096180916,0.02722565270960331,0.9996206760406494,515.5360717773438,0.153594970703125)">
	<g transform="matrix(1,0,0,1,261.2330017089844,313.28399658203125)">
		
			<linearGradient id="SVGID_00000052086900315333568100000001489927244036524463_" gradientUnits="userSpaceOnUse" x1="952.1068" y1="277.0578" x2="949.6774" y2="171.4675" gradientTransform="matrix(-0.9996 -2.722612e-02 2.722566e-02 -0.9996 1027.1294 83.13)">
			<stop  offset="0" style="stop-color:#DDDDDD"/>
			<stop  offset="0.5" style="stop-color:#C0C0C0"/>
			<stop  offset="1" style="stop-color:#A3A3A3"/>
		</linearGradient>
		<path style="fill:url(#SVGID_00000052086900315333568100000001489927244036524463_);" d="M-19.8-56c-2-2.7-4.6-165.2-1.9-174.2
			c1.3-6,154.7-58.1,164.4-61.1c4.5-1.2,50.8,18.4,46.6,19.7c-8.2,2.3-166.4,57.8-167.7,62.6c-1.8,5.9-0.1,168.4-1.8,174.6
			C19.1-31.5-13.4-48-19.8-56z"/>
		<path class="st12" d="M-19.8-56c-2-2.7-4.6-165.2-1.9-174.2c1.3-6,154.7-58.1,164.4-61.1c4.5-1.2,50.8,18.4,46.6,19.7
			c-8.2,2.3-166.4,57.8-167.7,62.6c-1.8,5.9-0.1,168.4-1.8,174.6C19.1-31.5-13.4-48-19.8-56z"/>
	</g>
	<g transform="matrix(1,0,0,1,183.60000610351562,280.7550048828125)">
		<path class="st13" d="M60-197.3c1.7,0.5,35.6,15.9,37.5,17.3c2,1.3,0.4,3.9-1,3.3c-3-1.3-36.4-15.5-38.4-17.9
			C57-196,58.4-197.7,60-197.3z"/>
	</g>
	<g transform="matrix(1,0,0,1,184.38600158691406,438.6830139160156)">
		<path class="st14" d="M57.7-201.7c0,0,2,7.9,6,12.2c5.6,4.5,13,9.1,17.6,10.4c4.6,1.4,10.9,2.5,12.6,1.7c1-0.5,0,15.2,0,15.2
			s-14.1-5.8-21.4-10.4c-7.2-4.6-12.7-7.8-13.3-11.2C58.6-187.3,57.7-201.7,57.7-201.7z"/>
	</g>
</g>
<g transform="matrix(0.9906170964241028,-0.13672788441181183,0.13672930002212524,0.9905999302864075,-31.208908081054688,38.2325439453125)">
	<g transform="matrix(1,0,0,1,302.5299987792969,284.42498779296875)">
		
			<linearGradient id="SVGID_00000169538131931093685200000000269519047524041879_" gradientUnits="userSpaceOnUse" x1="-671.1375" y1="179.8024" x2="-691.0245" y2="211.8014" gradientTransform="matrix(0.9906 0.1367 0.1367 -0.9906 590.3004 98.462)">
			<stop  offset="0" style="stop-color:#C6C6C6"/>
			<stop  offset="0.5" style="stop-color:#D2D2D2"/>
			<stop  offset="1" style="stop-color:#DDDDDD"/>
		</linearGradient>
		<path style="fill:url(#SVGID_00000169538131931093685200000000269519047524041879_);" d="M-104.9-214.3c0,0,18.1,10.7,26.8,21.8
			c15,19,22.5,47.7,22.5,47.7s8.7-14.7,13.8-26.2c11,1.7,20.7,5.8,20.7,5.8s-7.3-24.1-25.6-39.2c-15-12.4-28.9-16.9-34.2-17.3
			C-91.3-222.8-104.9-214.3-104.9-214.3z"/>
		<path class="st17" d="M-104.9-214.3c0,0,18.1,10.7,26.8,21.8c15,19,22.5,47.7,22.5,47.7s8.7-14.7,13.8-26.2
			c11,1.7,20.7,5.8,20.7,5.8s-7.3-24.1-25.6-39.2c-15-12.4-28.9-16.9-34.2-17.3C-91.3-222.8-104.9-214.3-104.9-214.3z"/>
	</g>
	<g transform="matrix(1,0,0,1,314.0830078125,284.12701416015625)">
		<path class="st13" d="M-52.6-195.3c-1.2-1.2-5.4-1.8-12.5,2.4c-10.2,5.9-14.5,11.1-13.9,12.2c2.1,4,2.7,5,4.9,9.9
			c0.6,1.4,3.6-5.3,16.3-12.5c7.8-4.4,11.9-3.4,11-4.8C-48.9-191.1-51.4-194-52.6-195.3z"/>
	</g>
</g>
<g transform="matrix(0.9670171737670898,-0.25474146008491516,0.25474491715431213,0.9670003056526184,-51.3294677734375,72.86468505859375)">
	<g transform="matrix(1,0,0,1,229.2220001220703,283.2799987792969)">
		
			<linearGradient id="SVGID_00000169521946941579074190000005599336127423975082_" gradientUnits="userSpaceOnUse" x1="-640.4834" y1="83.4723" x2="-614.6304" y2="114.7483" gradientTransform="matrix(0.967 0.2547 0.2547 -0.967 547.3984 62.021)">
			<stop  offset="0" style="stop-color:#C6C6C6"/>
			<stop  offset="0.4" style="stop-color:#D2D2D2"/>
			<stop  offset="0.8" style="stop-color:#DDDDDD"/>
		</linearGradient>
		<path style="fill:url(#SVGID_00000169521946941579074190000005599336127423975082_);" d="M-0.4-223.8c0,0-18.6,11-30.8,28.8
			c-10.3,15.1-13.7,45-13.7,45s-10.2-17.5-14.5-25c-8.3,1.7-21.1,5.6-21.1,5.6s5.7-22.1,16.1-34.7c10.8-13.2,25.1-21.2,37.5-25
			C-22.2-230.5-0.4-223.8-0.4-223.8z"/>
		<path class="st17" d="M-0.4-223.8c0,0-18.6,11-30.8,28.8c-10.3,15.1-13.7,45-13.7,45s-10.2-17.5-14.5-25
			c-8.3,1.7-21.1,5.6-21.1,5.6s5.7-22.1,16.1-34.7c10.8-13.2,25.1-21.2,37.5-25C-22.2-230.5-0.4-223.8-0.4-223.8z"/>
	</g>
	<g transform="matrix(1,0,0,1,218.2100067138672,279.76300048828125)">
		<path class="st13" d="M-49.3-201.4c1.1-1,6-1.6,13.3,2.3c8.6,4.6,11.8,9.3,11.3,10.3c-2.1,3.9-3.2,6.7-4.7,11.5
			c-0.4,1.4-0.7-4.6-12.6-10.9c-10.2-5.4-14.7-2.5-14.1-3.9C-55-195.2-50.8-200.2-49.3-201.4z"/>
	</g>
</g>
<g transform="matrix(0.9996243715286255,0.02771667018532753,-0.027718085795640945,0.9996072053909302,5.175628662109375,-7.19537353515625)">
	<g transform="matrix(1,0,0,1,311.0849914550781,220.1840057373047)">
		<path class="st19" d="M-61.2-153.4c6.1-12.6-14.8-45.8-27.9-41c-12,4.4-30,19.7-36.2,28.7c-4.5,6.5-5.7,14.2,1.1,17.6
			C-118.4-145.2-67.5-141.1-61.2-153.4z"/>
		<path class="st20" d="M-61.2-153.4c6.1-12.6-14.8-45.8-27.9-41c-12,4.4-30,19.7-36.2,28.7c-4.5,6.5-5.7,14.2,1.1,17.6
			C-118.4-145.2-67.5-141.1-61.2-153.4z"/>
	</g>
	<g transform="matrix(1,0,0,1,324.98699951171875,208.447998046875)">
		<path class="st13" d="M-106.2-178.4c0,0,4.7,0.9,10.2,8.3c5.4,7.2,7,14.3,7,14.3l9.4,1.9c0,0-1-8.3-8.8-18.3
			c-4.3-5.5-8.6-9.1-12.3-8.6C-102.9-180.4-106.2-178.4-106.2-178.4z"/>
	</g>
	<g transform="matrix(1,0,0,1,312.37701416015625,234.81900024414062)">
		
			<linearGradient id="SVGID_00000146484469863140403610000013131589921229848203_" gradientUnits="userSpaceOnUse" x1="-653.8682" y1="374.337" x2="-651.6992" y2="352.522" gradientTransform="matrix(0.9996 -2.771748e-02 -2.771753e-02 -0.9996 569.2776 181.2733)">
			<stop  offset="0" style="stop-color:#9B9B9B"/>
			<stop  offset="0.5" style="stop-color:#B0B0B0"/>
			<stop  offset="1" style="stop-color:#C5C5C5"/>
		</linearGradient>
		<path style="fill:url(#SVGID_00000146484469863140403610000013131589921229848203_);" d="M-121.6-162.9c1.3-3.3,41-19.6,48.7-20.1
			c5.4-0.3,8.5,12,4.7,17.7C-71.8-159.8-122.9-159.4-121.6-162.9z"/>
		<path class="st22" d="M-121.6-162.9c1.3-3.3,41-19.6,48.7-20.1c5.4-0.3,8.5,12,4.7,17.7C-71.8-159.8-122.9-159.4-121.6-162.9z"/>
	</g>
</g>
<g transform="matrix(0.9996379017829895,-0.027226122096180916,0.02722565270960331,0.9996206760406494,-6.967803955078125,8.5009765625)">
	<g transform="matrix(1,0,0,1,261.125,232.5469970703125)">
		<path class="st19" d="M-53.9-176.6c1.3,28.3-56.2,30.8-56.8,2.9C-111.4-202.7-55.2-204.8-53.9-176.6z"/>
		<path class="st23" d="M-53.9-176.6c1.3,28.3-56.2,30.8-56.8,2.9C-111.4-202.7-55.2-204.8-53.9-176.6z"/>
	</g>
	<g transform="matrix(1,0,0,1,264.3550109863281,220.38299560546875)">
		<path class="st13" d="M-106.5-174.4c12.9-11.7,45.3-11.9,47.1,10.3C-65.4-176.7-91.5-179.6-106.5-174.4z"/>
	</g>
	<g transform="matrix(1,0,0,1,261.552001953125,241.1060028076172)">
		<path class="st24" d="M-108.4-186.1c10.4,13.2,45.6,11.7,51.5-1.9C-51.2-158-115.9-156.2-108.4-186.1z"/>
	</g>
	<g transform="matrix(1,0,0,1,257.2099914550781,235.11199951171875)">
		<path class="st25" d="M-99.4-190.6c0,0,42.6-7.9,31.9,31.4"/>
	</g>
	<g transform="matrix(1,0,0,1,253.26400756835938,237.50100708007812)">
		<path class="st25" d="M-72.9-190.8c-10.9,1.9-26.9,19.7-12.5,31.2"/>
	</g>
</g>
<g transform="matrix(0.992821991443634,-0.11967170983552933,0.11967283487319946,0.9928048253059387,-27.942184448242188,30.999237060546875)">
	<g transform="matrix(1,0,0,1,210.30599975585938,235.93699645996094)">
		<path class="st19" d="M-84.3-148.8c-13.9-1.2-24.6-35.8-14.6-49c10.8-14,39.6,2,52.2,8.4c9.7,4.9,16.9,11.2,14.3,17.4
			C-34.1-168.4-69.4-147.7-84.3-148.8z"/>
		<path class="st20" d="M-84.3-148.8c-13.9-1.2-24.6-35.8-14.6-49c10.8-14,39.6,2,52.2,8.4c9.7,4.9,16.9,11.2,14.3,17.4
			C-34.1-168.4-69.4-147.7-84.3-148.8z"/>
	</g>
	<g transform="matrix(1,0,0,1,189.218994140625,224.1929931640625)">
		<path class="st13" d="M-68.8-188.7c0,0,0.1,6.1,3,13.2c3.3,8.8,7.6,12.6,7.6,12.6l-6.3,10.5c0,0-4.8-5.7-7.9-17
			c-2.7-8.9-2.6-15-1.7-16.6C-72.5-188.4-68.8-188.7-68.8-188.7z"/>
	</g>
	<g transform="matrix(1,0,0,1,217.0760040283203,247.32400512695312)">
		
			<linearGradient id="SVGID_00000137121801306177461750000016779123344433506957_" gradientUnits="userSpaceOnUse" x1="-600.7012" y1="249.1985" x2="-596.7232" y2="224.6115" gradientTransform="matrix(0.9928 0.1197 0.1197 -0.9928 497.2315 130.5319)">
			<stop  offset="0" style="stop-color:#9B9B9B"/>
			<stop  offset="0.5" style="stop-color:#B0B0B0"/>
			<stop  offset="1" style="stop-color:#C5C5C5"/>
		</linearGradient>
		<path style="fill:url(#SVGID_00000137121801306177461750000016779123344433506957_);" d="M-42.8-182.7c0.1-3.4-41.3-7-45.7-1.9
			c-4.8,5.3-4.3,19.9-0.3,20.6C-77.3-162.1-42.7-180.1-42.8-182.7z"/>
		<path class="st22" d="M-42.8-182.7c0.1-3.4-41.3-7-45.7-1.9c-4.8,5.3-4.3,19.9-0.3,20.6C-77.3-162.1-42.7-180.1-42.8-182.7z"/>
	</g>
</g>
<g>
	<path class="st27" d="M91.2,201.6v-12.3c0-2.2,0.8-3,2.2-3.4l9.7-3.2c1.9-0.7,4-0.1,5.9,1.6l9.7,8.8c1.5,1.4,2.2,2.6,2.2,5v13.3
		c0,2.5-0.7,3.2-2.2,3.7l-9.8,2.7c-1.9,0.5-3.7-0.2-5.6-2l-9.8-9.4C92,205,91.2,203.9,91.2,201.6z"/>
</g>
<g>
	<path class="st28" d="M246.8,198.9v-11.9c0-2.2,0.7-3.2,2-4.3l8.9-7.1c1.8-1.4,3.6-1.7,5.4-0.9l8.9,4c1.3,0.6,2,1.4,2,3.5V194
		c0,2.2-0.7,3.2-2,4.3l-9,7.3c-1.7,1.4-3.4,1.7-5.1,1l-9-3.9C247.5,201.9,246.8,201.2,246.8,198.9z"/>
</g>
</svg>
