<svg width="40" height="40" viewBox="0 0 40 40" fill="none" xmlns="http://www.w3.org/2000/svg">
<rect width="40" height="40" rx="8" fill="#282828"/>
<path d="M5.17951 22.2526L10.2043 15.3872C10.7391 14.6564 11.9113 15.0289 11.9113 15.9297V19.2391C11.9113 19.7515 12.3332 20.1669 12.8537 20.1669H15.0557C15.8628 20.1669 16.2965 21.1007 15.7686 21.7018L9.64539 28.6737C8.97796 29.4336 7.73095 28.7529 8.03204 27.793L8.93172 24.9247C9.11894 24.3278 8.66573 23.723 8.03124 23.723H5.94411C5.17576 23.723 4.73031 22.8664 5.17951 22.2526Z" fill="#007AFF"/>
<path d="M24.1795 18.2526L29.2043 11.3872C29.7391 10.6564 30.9113 11.0289 30.9113 11.9297V15.2391C30.9113 15.7515 31.3332 16.1669 31.8537 16.1669H34.0557C34.8628 16.1669 35.2965 17.1007 34.7686 17.7018L28.6454 24.6737C27.978 25.4336 26.7309 24.7529 27.032 23.793L27.9317 20.9247C28.1189 20.3278 27.6657 19.723 27.0312 19.723H24.9441C24.1758 19.723 23.7303 18.8664 24.1795 18.2526Z" fill="#007AFF"/>
<path d="M18.768 9.95561L11.4593 19.7634C10.2759 21.3513 11.498 23.4614 13.3732 23.4614H16.4091C16.7023 23.4614 16.8183 23.7111 16.7663 23.8739L15.4576 27.9714C15.067 29.1946 15.7146 30.2419 16.5828 30.7074C17.4459 31.1702 18.6634 31.1386 19.5024 30.2004L28.4089 20.2405C29.7987 18.6864 28.5953 16.3814 26.6265 16.3814H23.4236C23.1869 16.3814 23.0528 16.2042 23.0528 16.0558V11.3281C23.0528 9.0041 20.0762 8.20007 18.768 9.95561Z" fill="#007AFF" stroke="#282828" stroke-width="2" stroke-linecap="round"/>
</svg>
